<?xml version="1.0" encoding="UTF-8"?>
<svg version="1.1" xmlns="http://www.w3.org/2000/svg" width="307" height="344">
<path d="M0 0 C7.05084946 3.03658117 12.46128913 8.14644 18.1484375 13.1640625 C44.65775415 36.53232922 76.15633392 50.41326219 110.64648438 57.15307617 C118.56892765 58.76107946 124.36322872 60.82284226 129.6416626 67.31437492 C131.89198376 71.46889983 131.37853534 76.22002029 131.32226562 80.82836914 C131.32781464 81.98544876 131.33336365 83.14252838 131.33908081 84.33467102 C131.35089323 88.16233717 131.32656127 91.98882258 131.30078125 95.81640625 C131.29906879 98.49280983 131.29903471 101.16916722 131.30090332 103.8455658 C131.30084976 109.4653034 131.28112473 115.08470486 131.24902344 120.7043457 C131.21240015 127.14571319 131.20331087 133.58663635 131.21032095 140.02809435 C131.2167008 146.27087371 131.20571842 152.51350489 131.18635559 158.7562542 C131.17939524 161.38763135 131.17619245 164.01902157 131.17704773 166.65040779 C131.15524222 210.85423298 121.57462206 249.78434678 91.05078125 282.94140625 C80.98979486 292.98562433 69.09881945 300.90052713 56.51953125 307.40625 C55.512854 307.92759521 54.50617676 308.44894043 53.46899414 308.98608398 C41.34835332 315.1399982 29.10026936 318.8756684 15.70703125 321.28125 C14.68222656 321.466875 13.65742188 321.6525 12.6015625 321.84375 C-23.82662123 325.93598328 -59.75835039 316.4050924 -88.64453125 293.63476562 C-93.26328664 289.84235154 -97.61822119 285.77289306 -101.90771484 281.61523438 C-103.09762668 280.46936228 -104.31219016 279.34918714 -105.53125 278.234375 C-129.75588969 255.51467285 -140.27801098 218.76447851 -141.39165497 186.41454124 C-141.43549458 183.37458319 -141.45087835 180.33592608 -141.45410156 177.2956543 C-141.45906647 176.15276443 -141.46403137 175.00987457 -141.46914673 173.83235168 C-141.48363289 170.09005106 -141.49054393 166.34779267 -141.49609375 162.60546875 C-141.49892113 161.3212031 -141.5017485 160.03693745 -141.50466156 158.71375465 C-141.51805978 152.62690807 -141.52797997 146.54008011 -141.53186345 140.45322007 C-141.53635741 133.45149323 -141.55398983 126.44996031 -141.58286405 119.44829243 C-141.60709907 113.35873904 -141.61480792 107.26926577 -141.616539 101.17966652 C-141.61956526 98.59727732 -141.62759282 96.01488894 -141.64072418 93.43253136 C-141.65776003 89.82816089 -141.65591132 86.22426732 -141.64941406 82.61987305 C-141.65862885 81.55533905 -141.66784363 80.49080505 -141.67733765 79.39401245 C-141.63717847 72.28957886 -140.80526039 67.79354164 -135.60546875 62.59375 C-128.89727917 57.45946367 -120.50459363 56.4282691 -112.41796875 54.96875 C-79.81853283 48.70638933 -52.83625593 33.67277023 -27.91796875 11.96875 C-10.3452105 -3.24279171 -10.3452105 -3.24279171 0 0 Z " fill="#069C69" transform="translate(158.29296875,0.71875)"/>
<path d="M0 0 C7.05084946 3.03658117 12.46128913 8.14644 18.1484375 13.1640625 C44.65775415 36.53232922 76.15633392 50.41326219 110.64648438 57.15307617 C118.56892765 58.76107946 124.36322872 60.82284226 129.6416626 67.31437492 C131.89198376 71.46889983 131.37853534 76.22002029 131.32226562 80.82836914 C131.32781464 81.98544876 131.33336365 83.14252838 131.33908081 84.33467102 C131.35089323 88.16233717 131.32656127 91.98882258 131.30078125 95.81640625 C131.29906879 98.49280983 131.29903471 101.16916722 131.30090332 103.8455658 C131.30084976 109.4653034 131.28112473 115.08470486 131.24902344 120.7043457 C131.21240015 127.14571319 131.20331087 133.58663635 131.21032095 140.02809435 C131.2167008 146.27087371 131.20571842 152.51350489 131.18635559 158.7562542 C131.17939524 161.38763135 131.17619245 164.01902157 131.17704773 166.65040779 C131.15524222 210.85423298 121.57462206 249.78434678 91.05078125 282.94140625 C80.98979486 292.98562433 69.09881945 300.90052713 56.51953125 307.40625 C55.512854 307.92759521 54.50617676 308.44894043 53.46899414 308.98608398 C41.34835332 315.1399982 29.10026936 318.8756684 15.70703125 321.28125 C14.68222656 321.466875 13.65742188 321.6525 12.6015625 321.84375 C-23.82662123 325.93598328 -59.75835039 316.4050924 -88.64453125 293.63476562 C-93.26328664 289.84235154 -97.61822119 285.77289306 -101.90771484 281.61523438 C-103.09762668 280.46936228 -104.31219016 279.34918714 -105.53125 278.234375 C-129.75588969 255.51467285 -140.27801098 218.76447851 -141.39165497 186.41454124 C-141.43549458 183.37458319 -141.45087835 180.33592608 -141.45410156 177.2956543 C-141.45906647 176.15276443 -141.46403137 175.00987457 -141.46914673 173.83235168 C-141.48363289 170.09005106 -141.49054393 166.34779267 -141.49609375 162.60546875 C-141.49892113 161.3212031 -141.5017485 160.03693745 -141.50466156 158.71375465 C-141.51805978 152.62690807 -141.52797997 146.54008011 -141.53186345 140.45322007 C-141.53635741 133.45149323 -141.55398983 126.44996031 -141.58286405 119.44829243 C-141.60709907 113.35873904 -141.61480792 107.26926577 -141.616539 101.17966652 C-141.61956526 98.59727732 -141.62759282 96.01488894 -141.64072418 93.43253136 C-141.65776003 89.82816089 -141.65591132 86.22426732 -141.64941406 82.61987305 C-141.65862885 81.55533905 -141.66784363 80.49080505 -141.67733765 79.39401245 C-141.63717847 72.28957886 -140.80526039 67.79354164 -135.60546875 62.59375 C-128.89727917 57.45946367 -120.50459363 56.4282691 -112.41796875 54.96875 C-79.81853283 48.70638933 -52.83625593 33.67277023 -27.91796875 11.96875 C-10.3452105 -3.24279171 -10.3452105 -3.24279171 0 0 Z M-26.35546875 26.90625 C-49.68756472 46.55272102 -77.19850585 60.49928776 -107.34375 66.046875 C-108.35066895 66.2339502 -108.35066895 66.2339502 -109.37792969 66.42480469 C-111.23322818 66.75921651 -113.09309026 67.06802358 -114.953125 67.375 C-119.75858478 68.67893762 -124.16712303 71.33281331 -127.29296875 75.28125 C-128.23167329 78.25893134 -128.4223353 80.97129414 -128.43341064 84.08291626 C-128.43912079 85.04685806 -128.44483093 86.01079987 -128.45071411 87.00395203 C-128.45183197 88.05532852 -128.45294983 89.10670502 -128.45410156 90.18994141 C-128.45906647 91.30278 -128.46403137 92.41561859 -128.46914673 93.56217957 C-128.4837749 97.25239683 -128.49057503 100.94257097 -128.49609375 104.6328125 C-128.50184907 107.20714315 -128.50760675 109.7814738 -128.5133667 112.35580444 C-128.52253756 117.07320462 -128.52883408 121.79058769 -128.53186345 126.50799525 C-128.53631948 133.40666391 -128.55374933 140.30513199 -128.58286405 147.20373976 C-128.60731562 153.2104789 -128.61481921 159.21712527 -128.616539 165.22391891 C-128.61954225 167.760106 -128.62749079 170.29629272 -128.64072418 172.83244705 C-128.72594339 190.43569709 -128.38415233 207.64186545 -122.16796875 224.34375 C-121.7179248 225.5805249 -121.7179248 225.5805249 -121.25878906 226.84228516 C-108.75564046 260.05018901 -83.86819141 283.76975583 -52.12890625 298.77734375 C-48.88478088 300.12277559 -45.64638186 301.23579543 -42.29296875 302.28125 C-41.57641113 302.50828613 -40.85985352 302.73532227 -40.12158203 302.96923828 C-24.85702944 307.64825865 -10.16054089 307.86813528 5.70703125 307.28125 C5.70703125 306.95125 5.70703125 306.62125 5.70703125 306.28125 C2.07703125 306.28125 -1.55296875 306.28125 -5.29296875 306.28125 C-5.29296875 300.67125 -5.29296875 295.06125 -5.29296875 289.28125 C-2.65296875 288.62125 -0.01296875 287.96125 2.70703125 287.28125 C7.38378643 284.47519689 9.07237343 281.44332731 10.70703125 276.28125 C11.37540645 272.0672259 11.05354997 268.9609598 9.08203125 265.09375 C6.36544664 261.87674191 4.22394147 259.62585681 0.70703125 257.28125 C-1.60296875 257.28125 -3.91296875 257.28125 -6.29296875 257.28125 C-6.29296875 250.68125 -6.29296875 244.08125 -6.29296875 237.28125 C-3.32296875 237.28125 -0.35296875 237.28125 2.70703125 237.28125 C19.26245379 234.57329984 32.82884177 226.91825797 44.70703125 215.28125 C45.33480469 214.68957031 45.96257812 214.09789062 46.609375 213.48828125 C59.10652313 200.65107466 64.00456241 181.85566242 64.09423828 164.47827148 C63.76768111 146.32499512 54.48577324 129.77420543 41.70703125 117.28125 C28.12602048 105.76008405 11.53804469 98.77896793 -6.29296875 99.28125 C-6.29296875 94.66125 -6.29296875 90.04125 -6.29296875 85.28125 C-4.91109375 85.03375 -3.52921875 84.78625 -2.10546875 84.53125 C3.39500282 83.2878153 6.33400001 81.31712391 9.51953125 76.59375 C11.05953596 72.29794738 11.64235543 68.7829729 10.70703125 64.28125 C8.00362463 58.9301771 4.46303824 55.24074174 -1.29296875 53.28125 C-2.94296875 53.28125 -4.59296875 53.28125 -6.29296875 53.28125 C-6.29296875 41.07125 -6.29296875 28.86125 -6.29296875 16.28125 C-14.59194274 16.28125 -20.34556763 21.69117489 -26.35546875 26.90625 Z " fill="#004C42" transform="translate(158.29296875,0.71875)"/>
<path d="M0 0 C1.61841797 0.74636719 1.61841797 0.74636719 3.26953125 1.5078125 C22.43085139 11.09962584 33.21462665 25.50178453 41.16796875 44.83984375 C44.66554859 55.4967889 44.44741258 69.34436113 41 80 C40.5978125 81.3921875 40.5978125 81.3921875 40.1875 82.8125 C34.59936889 101.06706163 22.51908112 116.07349735 5.8828125 125.6171875 C-11.21127807 133.81679192 -29.966225 135.70853086 -48.02099609 129.73632812 C-67.34175188 122.54765314 -80.70507461 109.2287956 -89.4921875 90.6328125 C-96.97637966 72.60095056 -96.74783501 54.99432422 -89.8125 36.8125 C-82.41096062 20.22512157 -68.34026232 6.9619444 -51.8359375 -0.4140625 C-36.34244554 -6.2189018 -15.16692967 -7.1498218 0 0 Z " fill="#F6A732" transform="translate(179,105)"/>
<path d="M0 0 C7.05084946 3.03658117 12.46128913 8.14644 18.1484375 13.1640625 C44.65775415 36.53232922 76.15633392 50.41326219 110.64648438 57.15307617 C118.56892765 58.76107946 124.36322872 60.82284226 129.6416626 67.31437492 C131.89198376 71.46889983 131.37853534 76.22002029 131.32226562 80.82836914 C131.32781464 81.98544876 131.33336365 83.14252838 131.33908081 84.33467102 C131.35089323 88.16233717 131.32656127 91.98882258 131.30078125 95.81640625 C131.29906879 98.49280983 131.29903471 101.16916722 131.30090332 103.8455658 C131.30084976 109.4653034 131.28112473 115.08470486 131.24902344 120.7043457 C131.21240015 127.14571319 131.20331087 133.58663635 131.21032095 140.02809435 C131.2167008 146.27087371 131.20571842 152.51350489 131.18635559 158.7562542 C131.17939524 161.38763135 131.17619245 164.01902157 131.17704773 166.65040779 C131.15524222 210.85423298 121.57462206 249.78434678 91.05078125 282.94140625 C80.98979486 292.98562433 69.09881945 300.90052713 56.51953125 307.40625 C55.512854 307.92759521 54.50617676 308.44894043 53.46899414 308.98608398 C41.34835332 315.1399982 29.10026936 318.8756684 15.70703125 321.28125 C14.68222656 321.466875 13.65742188 321.6525 12.6015625 321.84375 C-23.82662123 325.93598328 -59.75835039 316.4050924 -88.64453125 293.63476562 C-93.26328664 289.84235154 -97.61822119 285.77289306 -101.90771484 281.61523438 C-103.09762668 280.46936228 -104.31219016 279.34918714 -105.53125 278.234375 C-129.75588969 255.51467285 -140.27801098 218.76447851 -141.39165497 186.41454124 C-141.43549458 183.37458319 -141.45087835 180.33592608 -141.45410156 177.2956543 C-141.45906647 176.15276443 -141.46403137 175.00987457 -141.46914673 173.83235168 C-141.48363289 170.09005106 -141.49054393 166.34779267 -141.49609375 162.60546875 C-141.49892113 161.3212031 -141.5017485 160.03693745 -141.50466156 158.71375465 C-141.51805978 152.62690807 -141.52797997 146.54008011 -141.53186345 140.45322007 C-141.53635741 133.45149323 -141.55398983 126.44996031 -141.58286405 119.44829243 C-141.60709907 113.35873904 -141.61480792 107.26926577 -141.616539 101.17966652 C-141.61956526 98.59727732 -141.62759282 96.01488894 -141.64072418 93.43253136 C-141.65776003 89.82816089 -141.65591132 86.22426732 -141.64941406 82.61987305 C-141.65862885 81.55533905 -141.66784363 80.49080505 -141.67733765 79.39401245 C-141.63717847 72.28957886 -140.80526039 67.79354164 -135.60546875 62.59375 C-128.89727917 57.45946367 -120.50459363 56.4282691 -112.41796875 54.96875 C-79.81853283 48.70638933 -52.83625593 33.67277023 -27.91796875 11.96875 C-10.3452105 -3.24279171 -10.3452105 -3.24279171 0 0 Z M-26.35546875 26.90625 C-49.68756472 46.55272102 -77.19850585 60.49928776 -107.34375 66.046875 C-108.35066895 66.2339502 -108.35066895 66.2339502 -109.37792969 66.42480469 C-111.23322818 66.75921651 -113.09309026 67.06802358 -114.953125 67.375 C-119.75858478 68.67893762 -124.16712303 71.33281331 -127.29296875 75.28125 C-128.23167329 78.25893134 -128.4223353 80.97129414 -128.43341064 84.08291626 C-128.43912079 85.04685806 -128.44483093 86.01079987 -128.45071411 87.00395203 C-128.45183197 88.05532852 -128.45294983 89.10670502 -128.45410156 90.18994141 C-128.45906647 91.30278 -128.46403137 92.41561859 -128.46914673 93.56217957 C-128.4837749 97.25239683 -128.49057503 100.94257097 -128.49609375 104.6328125 C-128.50184907 107.20714315 -128.50760675 109.7814738 -128.5133667 112.35580444 C-128.52253756 117.07320462 -128.52883408 121.79058769 -128.53186345 126.50799525 C-128.53631948 133.40666391 -128.55374933 140.30513199 -128.58286405 147.20373976 C-128.60731562 153.2104789 -128.61481921 159.21712527 -128.616539 165.22391891 C-128.61954225 167.760106 -128.62749079 170.29629272 -128.64072418 172.83244705 C-128.72594339 190.43569709 -128.38415233 207.64186545 -122.16796875 224.34375 C-121.7179248 225.5805249 -121.7179248 225.5805249 -121.25878906 226.84228516 C-108.75564046 260.05018901 -83.86819141 283.76975583 -52.12890625 298.77734375 C-48.88643866 300.12208806 -45.64251104 301.23019927 -42.29296875 302.28125 C-41.60831543 302.50828613 -40.92366211 302.73532227 -40.21826172 302.96923828 C-9.59788435 312.83365521 23.35706545 308.38912772 51.72021484 294.27978516 C60.19426558 289.92437072 67.59799277 284.61475701 74.70703125 278.28125 C75.24247559 277.80606934 75.77791992 277.33088867 76.32958984 276.84130859 C99.57631023 256.11604024 116.64577551 227.30873742 118.90457153 195.499403 C118.99278838 192.45329113 119.02288543 189.41237393 119.02929688 186.36499023 C119.03922668 185.21731171 119.04915649 184.06963318 119.05938721 182.88717651 C119.0884054 179.1213739 119.10219207 175.3557394 119.11328125 171.58984375 C119.118936 170.29737291 119.12459076 169.00490208 119.13041687 167.67326546 C119.15723342 161.54315527 119.17706068 155.41311932 119.18482065 149.28295559 C119.19379282 142.23741631 119.22897403 135.19265096 119.28682184 128.14734691 C119.33539377 122.01665915 119.35071479 115.88628945 119.35417175 109.75541878 C119.36021289 107.15873039 119.37622983 104.56204481 119.40254211 101.96548271 C119.43674905 98.33243172 119.4328852 94.70126302 119.41992188 91.06811523 C119.43835144 90.00344528 119.45678101 88.93877533 119.47576904 87.84184265 C119.39480874 80.57898614 117.67948012 75.6833228 112.70703125 70.28125 C107.48313295 67.15942335 101.82024507 66.43887931 95.89453125 65.46875 C73.06163489 61.35039707 50.31060857 52.3288492 31.70703125 38.28125 C30.65773437 37.48976563 29.6084375 36.69828125 28.52734375 35.8828125 C24.68647474 32.95627426 20.88239506 29.98291431 17.07910156 27.0078125 C5.95940621 18.33066069 5.95940621 18.33066069 -7.5703125 15.78515625 C-15.14487765 17.16531375 -20.69494725 21.99434809 -26.35546875 26.90625 Z " fill="#1D3E87" transform="translate(158.29296875,0.71875)"/>
<path d="M0 0 C0.66 0 1.32 0 2 0 C3.41067998 36.83442177 -10.60797672 72.1777093 -35.52294922 99.41015625 C-61.83815612 127.73488804 -98.7986027 149.41705433 -138.25512695 151.14233398 C-180.24742787 152.26262278 -219.23544702 142.45845736 -251.0625 113.6875 C-251.91714844 112.87539063 -252.77179688 112.06328125 -253.65234375 111.2265625 C-255.74714097 109.23981638 -257.9002278 107.39978741 -260.125 105.5625 C-265.06591389 101.2442216 -269.0153053 96.1913743 -273 91 C-273.80566406 89.95972656 -274.61132812 88.91945313 -275.44140625 87.84765625 C-292.58269537 65.15530944 -305.68630509 34.91700955 -304 6 C-300.46650943 9.79254414 -299.63081756 14.25920972 -298.3125 19.125 C-286.1995236 61.25243119 -254.86569814 97.49023896 -217 119 C-185.47251497 136.27814527 -151.77876684 141.67618052 -116.61328125 132.0625 C-115.42089844 131.711875 -114.22851562 131.36125 -113 131 C-111.94167969 130.690625 -110.88335937 130.38125 -109.79296875 130.0625 C-84.08148787 121.97500929 -57.92180202 106.30893588 -41 85 C-40.17113281 84.00742187 -39.34226562 83.01484375 -38.48828125 81.9921875 C-31.27289374 73.23511603 -25.37407057 63.98337842 -20 54 C-19.65372559 53.36352539 -19.30745117 52.72705078 -18.95068359 52.07128906 C-10.3029509 35.87207453 -4.96118885 17.61654299 0 0 Z " fill="#223C8A" transform="translate(304,193)"/>
<path d="M0 0 C4.77053572 0.12211269 8.09896633 0.33501406 11.9140625 3.49609375 C15.69457806 7.71868573 17.82788724 12.35428175 19.83007812 17.58789062 C20.70675628 19.7283096 20.70675628 19.7283096 22.9140625 22.49609375 C27.3690625 23.48609375 27.3690625 23.48609375 31.9140625 24.49609375 C31.9140625 16.90609375 31.9140625 9.31609375 31.9140625 1.49609375 C35.5440625 1.49609375 39.1740625 1.49609375 42.9140625 1.49609375 C42.9140625 9.08609375 42.9140625 16.67609375 42.9140625 24.49609375 C44.8940625 24.49609375 46.8740625 24.49609375 48.9140625 24.49609375 C48.9140625 25.81609375 48.9140625 27.13609375 48.9140625 28.49609375 C46.9340625 28.49609375 44.9540625 28.49609375 42.9140625 28.49609375 C42.9140625 29.81609375 42.9140625 31.13609375 42.9140625 32.49609375 C44.8940625 32.49609375 46.8740625 32.49609375 48.9140625 32.49609375 C48.9140625 34.14609375 48.9140625 35.79609375 48.9140625 37.49609375 C46.9340625 37.49609375 44.9540625 37.49609375 42.9140625 37.49609375 C42.92977295 38.38917236 42.92977295 38.38917236 42.94580078 39.30029297 C42.98730199 41.99051718 43.01336954 44.68067412 43.0390625 47.37109375 C43.05582031 48.30824219 43.07257813 49.24539062 43.08984375 50.2109375 C43.09951172 51.55478516 43.09951172 51.55478516 43.109375 52.92578125 C43.12508545 54.16690674 43.12508545 54.16690674 43.14111328 55.43310547 C42.9140625 57.49609375 42.9140625 57.49609375 40.9140625 59.49609375 C38.70703125 59.8671875 38.70703125 59.8671875 36.1015625 59.93359375 C35.24949219 59.97355469 34.39742187 60.01351562 33.51953125 60.0546875 C29.71695392 59.23944229 28.37566431 57.46889082 25.9140625 54.49609375 C24.32104952 52.00698968 22.94598236 49.43875861 21.6015625 46.80859375 C21.24255859 46.13248047 20.88355469 45.45636719 20.51367188 44.75976562 C17.9140625 39.78337054 17.9140625 39.78337054 17.9140625 37.49609375 C13.9540625 37.49609375 9.9940625 37.49609375 5.9140625 37.49609375 C5.9140625 44.42609375 5.9140625 51.35609375 5.9140625 58.49609375 C2.6140625 58.49609375 -0.6859375 58.49609375 -4.0859375 58.49609375 C-4.0859375 51.23609375 -4.0859375 43.97609375 -4.0859375 36.49609375 C-6.0659375 36.49609375 -8.0459375 36.49609375 -10.0859375 36.49609375 C-10.0859375 35.50609375 -10.0859375 34.51609375 -10.0859375 33.49609375 C-8.1059375 33.49609375 -6.1259375 33.49609375 -4.0859375 33.49609375 C-4.0859375 31.84609375 -4.0859375 30.19609375 -4.0859375 28.49609375 C-6.3959375 28.49609375 -8.7059375 28.49609375 -11.0859375 28.49609375 C-11.0859375 27.17609375 -11.0859375 25.85609375 -11.0859375 24.49609375 C-9.1059375 24.49609375 -7.1259375 24.49609375 -5.0859375 24.49609375 C-5.10164795 23.91118164 -5.1173584 23.32626953 -5.13354492 22.72363281 C-5.19604017 20.06455211 -5.23497319 17.40562611 -5.2734375 14.74609375 C-5.29857422 13.82570312 -5.32371094 12.9053125 -5.34960938 11.95703125 C-5.36411133 10.62285156 -5.36411133 10.62285156 -5.37890625 9.26171875 C-5.40247192 8.03630371 -5.40247192 8.03630371 -5.42651367 6.78613281 C-4.91008743 3.31367538 -3.51488181 0.83593631 0 0 Z " fill="#FCF8F1" transform="translate(130.0859375,141.50390625)"/>
<path d="M0 0 C4.58926886 2.63271537 7.99681419 6.06908108 10 11 C10.63220332 17.32203319 9.68349407 21.76434177 6 27 C2.25592488 30.74407512 -0.87729347 31.29712053 -6 31.5 C-11.09567828 31.31056958 -14.23316255 30.67025187 -18 27 C-21.70154919 22.18798606 -21.55511545 16.85982398 -21.421875 11.00390625 C-21 8 -21 8 -18.75 4.875 C-17.8425 4.25625 -16.935 3.6375 -16 3 C-15.401875 2.47921875 -14.80375 1.9584375 -14.1875 1.421875 C-9.89169945 -1.37039536 -4.89052971 -0.88805015 0 0 Z " fill="#F1A531" transform="translate(159,258)"/>
<path d="M0 0 C4.5162817 2.32777515 7.88123931 5.69743615 9.9609375 10.3515625 C11.07629312 15.39333262 10.3446954 19.2778782 7.7734375 23.7265625 C5.67254056 26.96794635 3.43346483 28.65567706 -0.0390625 30.3515625 C-5.11629924 31.31798825 -10.0046417 31.53253433 -14.5625 28.88671875 C-18.56462452 25.4697424 -20.6832237 23.08100788 -21.3828125 17.71484375 C-21.68183535 11.87642267 -21.61607643 8.19002036 -17.6640625 3.6640625 C-12.64849213 -1.32054756 -6.81775257 -2.16809756 0 0 Z " fill="#F1A631" transform="translate(159.0390625,54.6484375)"/>
<path d="M0 0 C2.64 0 5.28 0 8 0 C8.33 1.65 8.66 3.3 9 5 C6.03 5 3.06 5 0 5 C0 3.35 0 1.7 0 0 Z " fill="#FABF68" transform="translate(136,170)"/>
<path d="M0 0 C2.31 0 4.62 0 7 0 C7 1.98 7 3.96 7 6 C4.625 6.1875 4.625 6.1875 2 6 C0 3 0 3 0 0 Z " fill="#FBCA84" transform="translate(156,170)"/>
<path d="M0 0 C3.10551666 3.10551666 3.81323934 4.89198233 5 9 C3.35 9 1.7 9 0 9 C0 6.03 0 3.06 0 0 Z " fill="#FAAF44" transform="translate(136,157)"/>
</svg>
